<!--
  By Adrien Coquet, FR 
  https://thenounproject.com/search/?q=experiment&i=2340054
-->
<svg xmlns="http://www.w3.org/2000/svg" style="height: 24px" viewBox="0 0 100 100" fill='currentColor'>
  <switch>
    <g>
      <path d="M81 80.3l-18-29c-.4-.7-.6-1.5-.6-2.3V34.9h.8c1.9 0 3.5-1.5 3.5-3.5 0-1.9-1.6-3.5-3.5-3.5H36.8a3.5 3.5 0 00-3.5 3.5c0 1.9 1.6 3.5 3.5 3.5h.8v14.2c0 .8-.2 1.6-.6 2.3l-18 29a11.1 11.1 0 00-.3 11.4c2 3.6 5.7 5.8 9.8 5.8h43A11.3 11.3 0 0081 80.3zM55.4 34.9v14.2c0 2.1.6 4.1 1.7 5.9l3.8 6.2c-2-.2-4.1-.7-6.1-1.5a31.2 31.2 0 00-13.6-2.1l1.6-2.6c1.1-1.8 1.7-3.8 1.7-5.9V34.9h10.9zm19.8 53.5a4.3 4.3 0 01-3.8 2.2h-43c-1.6 0-3-.8-3.8-2.2-.6-1.4-.6-3.1.3-4.4l11.3-18.1a22 22 0 0116.3.3c3.8 1.4 7.5 2.2 11.2 2.2l1.7-.1L75.1 84c.9 1.3.9 3 .1 4.4z"/>
      <circle cx="42.8" cy="14.7" r="5.2"/>
      <circle cx="53.9" cy="6.9" r="4.4"/>
      <circle cx="55.3" cy="19.6" r="4.6"/>
    </g>
  </switch>
</svg>