<!-- Created by Cindy Duong - from the Noun Project -->
<svg xmlns="http://www.w3.org/2000/svg" xmlns:xlink="http://www.w3.org/1999/xlink" version="1.1" x="0px" y="0px" viewBox="0 0 100 100" style="enable-background:new 0 0 100 100;" xml:space="preserve"><g><path d="M84.4,30.5C84.4,30.5,84.4,30.5,84.4,30.5c-3.4,0.2-4.8,0.4-6,0.6c-0.6,0.1-1.3,0.2-2.2,0.3l3.7-5.1c0.6-0.5,1-1.1,1.1-1.8   c0,0,0-0.1,0-0.1c0-0.1,0-0.2,0-0.4c0-0.1,0-0.2,0-0.2c0-0.1,0-0.1,0-0.2c-0.6-4-9.3-4.4-13.1-4.4c-3.6,0-11.4,0.4-12.9,3.7   l-8.5,9.3c-10.8,0-14.5-0.3-22.5-1c-2.3-0.2-5.1-0.4-8.4-0.7l0,0c-0.1,0-0.1,0-0.2,0c-7,0-12.2,10.8-12.2,25.2   c0,14.4,5.3,25.2,12.2,25.2h69.1c7,0,12.2-10.8,12.2-25.2C96.8,41.3,91.5,30.5,84.4,30.5z M90,41.1c-1.6-0.2-3.4-0.4-5.1-0.5   c0.4-0.1,0.7-0.3,1.1-0.4c1.6-0.5,2.5-0.8,3.2-0.9C89.4,39.8,89.7,40.4,90,41.1z M68,23.5c2.6,0,4.7,0.2,6.2,0.5   c-1.5,0.3-3.6,0.5-6.2,0.5s-4.7-0.2-6.2-0.5C63.3,23.7,65.4,23.5,68,23.5z M7.6,55.7c0-11.9,4.1-20.8,7.9-20.8c0,0,0.1,0,0.1,0   c3.7,0.1,7.8,9,7.8,20.8c0,11.9-4.2,20.8-7.9,20.8S7.6,67.6,7.6,55.7z M27.1,63.7c0.3,0,0.5,0.1,0.8,0.1c1,0.2,2,0.3,3,0.4   c-0.5,0.2-1,0.4-1.5,0.5c-1.1,0.3-1.9,0.6-2.6,0.7C26.9,64.9,27,64.3,27.1,63.7z M84.5,76.5h-62c1.6-2.2,2.9-5.2,3.8-8.7   c0.9-0.2,2.1-0.5,3.8-1c4.2-1.4,7.8-3.5,8-3.6c0.5-0.3,0.7-1,0.4-1.5c-0.3-0.5-0.9-0.7-1.5-0.4c-2.5,1.4-5.4,0.9-8.7,0.3   c-0.3,0-0.6-0.1-0.9-0.1c0.2-1.9,0.3-3.8,0.3-5.8c0-8.5-1.9-15.7-4.8-20.2c0.3,0,0.5,0,0.8,0.1c7,0.6,10.9,0.9,18.9,1l-2.1,2.3   c-0.8,0.9-0.8,2.3,0.1,3.1c0.4,0.4,0.9,0.6,1.5,0.6c0.6,0,1.2-0.2,1.6-0.7l13.5-14.7c3,1.5,8.1,1.8,10.8,1.8c1.3,0,3.1-0.1,5-0.3   l-9,12.7c-0.7,1-0.5,2.3,0.5,3c0.4,0.3,0.8,0.4,1.3,0.4c0.7,0,1.3-0.3,1.8-0.9L73,36c3.5-0.1,4.7-0.3,6.1-0.5   c1.1-0.2,2.4-0.4,5.4-0.6c1.2,0,2.4,0.9,3.5,2.4c-0.7,0.2-1.6,0.4-2.7,0.8c-4.2,1.4-7.8,3.5-8,3.6c-0.5,0.3-0.7,1-0.4,1.5   c0.2,0.4,0.6,0.5,0.9,0.5c0.2,0,0.3,0,0.5-0.1c2.9-1.5,8.3-0.8,12.3-0.3c0,0,0,0,0,0c1,3.4,1.7,7.6,1.7,12.4   C92.4,67.6,88.3,76.5,84.5,76.5z"/><path d="M17,42.2c-0.6-0.6-1.2-0.7-1.5-0.7c-4.1,0-4.2,12.8-4.2,14.3S11.4,70,15.5,70c0.6,0,1.1-0.5,1.1-1.1s-0.4-1.1-1-1.1   c-0.8-0.4-2.1-4.9-2.1-12.1c0-6.9,1.2-11.2,2-12c0.8,0.8,2.2,5.4,2,12c-0.1,2.1-0.3,3.4-0.5,4.1c-0.2-0.8-0.5-2.1-0.4-4   c0-0.6-0.5-1.1-1.1-1.1c-0.6,0-1.1,0.5-1.1,1.1c-0.1,3.4,0.7,6.9,2.6,6.9c1.6,0,2.5-2.1,2.6-6.8C19.8,49.5,18.8,44,17,42.2z"/></g></svg>
