<?xml version="1.0" standalone="no"?>
<!DOCTYPE svg PUBLIC "-//W3C//DTD SVG 20010904//EN"
 "http://www.w3.org/TR/2001/REC-SVG-20010904/DTD/svg10.dtd">
<svg version="1.0" xmlns="http://www.w3.org/2000/svg"
 width="700.000000pt" height="700.000000pt" viewBox="0 0 700.000000 700.000000"
 preserveAspectRatio="xMidYMid meet">
<metadata>
Created by potrace 1.11, written by Peter Selinger 2001-2013
</metadata>
<g transform="translate(0.000000,700.000000) scale(0.100000,-0.100000)"
fill="#000000" stroke="none">
<path d="M4475 5644 c-194 -22 -359 -58 -448 -98 -69 -31 -133 -79 -156 -117
-11 -17 -153 -178 -317 -357 l-297 -325 -431 6 c-448 6 -571 13 -1271 73 -475
40 -558 40 -653 2 -322 -132 -554 -578 -649 -1248 -25 -181 -25 -770 0 -950
62 -435 173 -759 342 -995 59 -84 179 -194 251 -232 128 -68 -78 -63 2652 -63
2687 0 2528 -3 2636 52 217 111 401 391 515 783 105 363 145 895 100 1330 -71
682 -320 1180 -661 1324 -61 25 -69 26 -233 24 -116 -2 -224 -10 -340 -27 -93
-13 -172 -22 -174 -21 -4 5 224 320 267 369 49 55 65 101 59 162 -17 164 -211
261 -602 304 -82 9 -518 12 -590 4z m590 -305 c44 -5 85 -9 92 -9 7 0 13 -4
13 -9 0 -23 -355 -42 -567 -31 -334 19 -338 42 -13 60 141 8 355 3 475 -11z
m-835 -315 c205 -45 476 -62 714 -45 87 7 160 10 161 9 1 -2 -137 -199 -307
-438 -170 -239 -319 -455 -330 -479 -47 -102 21 -201 138 -201 37 0 60 6 84
23 20 13 104 127 219 294 102 150 191 277 197 283 5 5 79 15 162 20 84 5 214
18 290 29 75 11 192 25 260 31 120 11 124 11 175 -13 53 -25 173 -135 160
-147 -5 -4 -37 -15 -73 -24 -170 -46 -621 -243 -680 -298 -11 -11 -20 -31 -20
-49 0 -75 43 -92 141 -55 101 38 209 50 403 43 173 -6 404 -31 417 -44 7 -8
51 -188 69 -283 59 -308 65 -786 14 -1110 -61 -387 -187 -698 -343 -843 -97
-91 153 -82 -2313 -85 -1204 -1 -2188 1 -2188 5 0 3 20 38 44 77 78 127 143
279 196 461 l20 70 131 34 c71 18 183 53 247 78 162 61 459 208 472 234 18 33
8 80 -23 103 -31 23 -21 25 -162 -32 -69 -27 -254 -28 -429 -1 -83 12 -152 23
-154 25 -2 1 2 92 8 201 18 301 -4 632 -61 908 -50 243 -138 491 -229 644 -34
59 -37 75 -12 67 19 -6 287 -29 537 -46 88 -7 307 -17 487 -23 l327 -12 -84
-93 c-65 -72 -86 -103 -93 -135 -26 -128 97 -228 211 -172 18 9 241 244 511
539 l480 523 60 -25 c34 -13 108 -35 166 -48z m-3087 -478 c101 -36 185 -133
273 -311 255 -521 296 -1397 95 -2026 -113 -353 -271 -561 -426 -561 -155 0
-313 208 -426 561 -201 629 -158 1524 97 2034 92 185 184 282 289 308 44 10
56 10 98 -5z m5130 -358 c15 -34 26 -62 24 -64 -1 -1 -54 4 -117 12 -63 7
-136 13 -162 14 -97 0 -60 21 147 81 33 10 65 18 70 18 6 1 23 -27 38 -61z
m-4193 -1672 c71 -12 74 -13 47 -24 -16 -7 -78 -25 -139 -42 l-111 -29 7 46
c3 25 6 52 6 60 0 16 36 14 190 -11z"/>
<path d="M1004 4062 c-131 -95 -206 -449 -207 -967 0 -444 58 -778 157 -908
47 -62 93 -90 136 -83 83 13 97 118 20 145 -157 54 -220 1014 -99 1505 18 76
62 186 73 186 10 0 47 -80 66 -143 49 -163 73 -355 73 -597 1 -167 -14 -338
-31 -365 -10 -16 -31 121 -31 208 -1 69 -4 81 -26 102 -13 14 -36 25 -50 25
-14 0 -37 -11 -50 -25 -23 -22 -25 -32 -25 -108 0 -175 53 -355 117 -402 34
-24 91 -25 126 -2 36 23 71 95 93 192 26 111 27 616 1 772 -34 210 -79 345
-143 429 -54 71 -132 85 -200 36z"/>
</g>
</svg>
