<?xml version="1.0" standalone="no"?>
<!DOCTYPE svg PUBLIC "-//W3C//DTD SVG 20010904//EN"
 "http://www.w3.org/TR/2001/REC-SVG-20010904/DTD/svg10.dtd">
<svg version="1.0" xmlns="http://www.w3.org/2000/svg"
 width="700.000000pt" height="700.000000pt" viewBox="0 0 700.000000 700.000000"
 preserveAspectRatio="xMidYMid meet">
<metadata>
Created by potrace 1.11, written by Peter Selinger 2001-2013
</metadata>
<g transform="translate(0.000000,700.000000) scale(0.100000,-0.100000)"
fill="#000000" stroke="none">
<path d="M4688 5655 c-2 -2 -59 -5 -128 -8 -237 -10 -447 -52 -555 -110 -63
-34 -113 -76 -145 -121 -16 -22 -46 -60 -67 -82 -37 -41 -100 -109 -337 -368
-66 -72 -139 -151 -162 -175 l-42 -44 -278 2 c-154 1 -324 4 -379 6 -177 7
-338 15 -400 20 -33 3 -96 7 -140 11 -124 9 -185 13 -245 19 -30 3 -83 7 -117
10 -35 3 -91 7 -125 10 -69 6 -159 13 -228 20 -122 11 -230 18 -275 17 -284
-7 -541 -281 -690 -736 -40 -122 -86 -307 -100 -401 -4 -22 -8 -51 -10 -65 -3
-14 -7 -50 -11 -80 -3 -30 -8 -63 -9 -72 -23 -121 -23 -642 -1 -808 2 -14 7
-50 10 -80 4 -30 13 -91 21 -135 8 -44 16 -92 19 -106 11 -64 70 -272 104
-364 103 -285 272 -518 442 -612 37 -21 119 -50 167 -60 40 -8 4907 -8 4971 1
30 3 63 11 73 17 10 5 19 7 19 4 0 -3 33 11 73 32 89 46 212 165 286 276 58
87 125 222 172 348 29 81 91 307 103 379 7 44 15 88 21 120 8 41 25 179 32
270 15 175 7 688 -12 760 -2 8 -7 42 -10 75 -4 32 -8 62 -10 65 -1 3 -6 28 -9
55 -26 191 -119 485 -209 653 -64 121 -115 191 -202 278 -131 132 -246 185
-400 185 -49 0 -106 -2 -125 -5 -19 -3 -73 -8 -119 -11 -46 -3 -87 -8 -91 -10
-3 -2 -33 -6 -66 -10 -32 -3 -75 -8 -94 -11 -19 -4 -43 -8 -52 -10 -10 -1 -18
-1 -18 2 0 8 242 339 271 369 56 60 74 149 45 220 -38 91 -185 176 -361 211
-161 32 -286 44 -473 49 -72 1 -132 1 -134 0z m297 -309 c239 -19 239 -33 -1
-52 -152 -12 -477 -6 -559 10 -11 3 -33 5 -48 5 -16 1 -26 5 -23 10 7 11 75
20 206 28 58 3 106 6 107 7 5 4 247 -3 318 -8z m-935 -271 c17 -9 30 -13 30
-9 0 4 6 2 13 -4 20 -16 176 -52 297 -68 153 -20 468 -26 632 -11 l88 8 -102
-143 c-55 -79 -117 -165 -136 -193 -20 -27 -115 -162 -212 -300 -98 -137 -185
-265 -195 -284 -59 -117 78 -247 201 -191 47 20 64 40 164 189 227 338 281
411 303 412 100 4 320 20 326 23 3 2 33 7 66 10 33 4 85 11 115 16 76 12 214
24 278 22 71 -1 128 -35 215 -129 l29 -31 -89 -27 c-48 -14 -97 -30 -108 -35
-11 -5 -65 -25 -120 -45 -132 -48 -422 -190 -450 -221 -24 -25 -26 -74 -4
-100 18 -22 63 -25 109 -8 122 45 187 53 390 49 107 -2 211 -6 230 -9 19 -2
62 -7 96 -11 129 -15 124 -12 145 -90 10 -39 28 -117 39 -175 26 -138 28 -149
36 -228 3 -37 8 -76 11 -87 9 -37 11 -529 3 -610 -10 -102 -20 -183 -25 -215
-3 -14 -7 -41 -10 -60 -47 -287 -148 -561 -264 -714 -61 -80 -92 -108 -151
-138 l-45 -22 -2188 0 c-1203 -1 -2187 1 -2187 3 0 3 18 32 39 65 62 95 122
228 176 390 54 162 48 154 130 170 64 13 223 65 338 110 138 56 390 178 414
201 38 39 33 92 -12 121 -28 18 -23 19 -146 -25 -127 -46 -243 -44 -529 5 -19
4 -42 7 -50 9 -12 2 -14 17 -11 86 7 140 6 529 -2 609 -13 144 -18 188 -21
206 -2 11 -7 44 -11 74 -4 30 -15 91 -25 135 -11 45 -21 92 -24 105 -33 160
-128 407 -205 538 -30 51 -39 78 -23 69 4 -3 41 -8 82 -11 41 -4 91 -9 110
-11 30 -4 125 -11 260 -20 31 -2 138 -9 320 -20 30 -2 174 -7 320 -10 146 -4
266 -7 267 -8 1 -1 -32 -38 -72 -82 -41 -44 -83 -97 -94 -118 -62 -123 64
-256 195 -206 16 5 42 25 58 42 35 37 280 303 356 387 8 9 40 43 71 76 30 32
104 113 164 179 59 66 115 127 124 136 42 42 197 213 204 225 10 18 31 18 67
-1z m-2872 -544 c186 -96 370 -514 428 -971 3 -25 7 -56 10 -70 24 -139 23
-673 -1 -785 -3 -11 -7 -38 -9 -60 -23 -219 -118 -545 -204 -704 -137 -256
-271 -342 -413 -265 -170 93 -329 426 -404 844 -40 226 -49 332 -49 585 0 149
4 229 19 402 3 37 21 143 40 248 23 121 79 299 132 424 90 212 199 337 323
374 28 8 91 -3 128 -22z m5094 -341 c25 -55 24 -64 -2 -62 -3 0 -30 3 -60 6
-30 4 -90 9 -135 12 -98 8 -103 9 -110 15 -5 6 241 84 275 88 3 0 17 -27 32
-59z m-4257 -1666 c28 -4 55 -9 60 -9 6 -1 26 -3 45 -4 60 -3 26 -17 -174 -71
l-68 -19 7 46 c10 70 14 74 49 69 17 -2 54 -8 81 -12z"/>
<path d="M1055 4093 c-33 -8 -84 -52 -112 -96 -48 -76 -99 -254 -118 -417 -3
-25 -8 -56 -10 -70 -25 -143 -25 -698 0 -829 2 -10 6 -42 9 -72 20 -185 86
-383 151 -451 78 -83 185 -69 185 23 0 31 -30 69 -55 69 -43 0 -110 202 -130
390 -3 30 -8 71 -10 90 -13 98 -17 183 -16 375 1 116 3 233 5 260 13 171 35
304 68 425 19 70 53 150 63 150 9 0 43 -77 64 -144 48 -155 75 -371 75 -601 0
-161 -21 -368 -36 -359 -5 3 -7 8 -4 11 2 3 0 17 -6 32 -8 22 -15 100 -17 214
-1 35 -42 77 -74 77 -13 0 -36 -9 -51 -21 -25 -20 -26 -24 -26 -122 1 -300
124 -488 253 -387 48 38 90 162 102 305 8 87 8 447 1 495 -3 19 -8 62 -11 95
-12 135 -54 308 -97 405 -49 108 -131 169 -203 153z"/>
</g>
</svg>
