<svg version="1" xmlns="http://www.w3.org/2000/svg" width="1706.667" height="1706.667" viewBox="0 0 1280.000000 1280.000000"><path d="M605 1.1c-146.8 9-277.9 62.7-388 158.9-15.4 13.5-47.4 45.6-60.2 60.5C81.7 308 33.1 408 11.6 519.5 3.9 559.4.6 595.4.6 640c0 36.2 1.4 58 6 90C24 852.7 74.7 963.9 156.8 1059.5c20 23.2 56.7 58.6 81.7 78.7 96.8 77.9 215.1 126.4 337 138.3 47.6 4.6 81.4 4.6 129 0 121.9-11.9 240.2-60.4 337-138.3 25-20.1 61.7-55.5 81.7-78.7 75.1-87.5 123.7-187.5 145.2-299 7.7-39.9 11-75.9 11-120.5 0-36.2-1.4-58-6-90-17.4-122.7-68.1-233.9-150.2-329.5-20-23.2-56.7-58.6-81.7-78.7C961.5 77.4 866.1 32.6 766 12.6 714.9 2.4 654.6-1.9 605 1.1zm63.7 7.4c66.3 1.8 141.9 18.2 207.8 44.8 207.5 83.8 356.4 272.4 388.9 492.3 5.7 38.6 7.7 75.1 6.4 117.2-5.3 177.8-88.3 347.2-226.6 462.8-108 90.2-243.6 142-382.4 146.2-92.5 2.8-177.3-12-259.3-45.1C196 1142.9 47.1 954.3 14.6 734.4c-5.7-38.6-7.7-75.1-6.4-117.2C13.5 439.4 96.5 270 234.8 154.4 342.6 64.4 477.7 12.6 616.9 8.1c11.9-.4 24.3-.6 27.6-.4 3.3.1 14.2.5 24.2.8z"/><path d="M616 58.6C548.7 63 508.3 70.5 454.5 88.5 279.2 147 141.1 286.3 84 462.5c-12.5 38.8-20.7 77.8-25.7 123-2.6 23-2.5 91.1 0 114C68 787 92 861.8 133.6 934.1c41.2 71.8 100.4 136.8 168.9 185.4 160 113.6 367.9 138.9 551 67 74.6-29.3 138.3-70.8 196.3-127.9C1140.9 969 1199 855.1 1217.9 729c4.9-32.4 5.6-43.6 5.6-86.5 0-43.9-.8-54.9-6.1-89.5-22.6-146-98.9-276.6-216.2-369.8C913.8 113.7 805 70.7 691.4 60.5c-16.2-1.5-64-2.7-75.4-1.9zm82.5 9.8c74.6 8.4 137.6 26.9 201.7 59.2 110.7 55.8 202.6 148.6 257.3 259.9 48.6 98.9 67.9 208.7 56 318.2-12.3 112.6-57.5 218.8-130 305.6-28.7 34.3-62.2 66.3-96.9 92.4-77.5 58.2-168.6 96.1-263.9 109.7-31.6 4.6-40.3 5.1-82.7 5.1-42.4 0-51.1-.5-82.7-5.1-83.2-11.8-164.2-42.6-234.3-88.9-99.1-65.5-176.1-160-219.5-269.5-46.7-117.9-53.1-249.5-18.1-371.7 36.4-127 116-238.1 225.4-314.5 64.8-45.3 140.8-77.5 219.2-92.7 23-4.4 42.1-6.9 74-9.5 12.2-1 81.3.3 94.5 1.8z"/><path d="M246 435.5V463l39.7.2 39.7.3 13.2 42.5c7.2 23.4 24.9 80.4 39.3 126.6 14.3 46.3 26.1 85.7 26.1 87.7 0 1.9.6 3.7 1.3 4 .7.2 10.4 30.2 21.7 66.6 14 45.2 20.9 65.9 21.7 65.6.7-.2 1.5 0 1.8.5.4.6 87.9 1 237.6 1H925v-69l-219.1-.2-219.2-.3-9.8-31.5c-5.4-17.3-9.8-31.8-9.9-32.3 0-.4 108.2-.7 240.5-.7H948v-69H696.5c-138.3 0-251.5-.2-251.5-.4 0-.9-20-64.9-20.6-65.7-.3-.5 115.4-.9 270-.9H965v-70H402.7l-16.4-52.7c-9-29.1-16.8-53.8-17.5-55.1l-1.1-2.2H246v27.5zM836.8 876.1c-26.9 3.7-45.9 36.1-39.3 67.4 2.9 13.9 11.9 27.7 22.5 34.5 32.8 21 72.1-8.1 69.7-51.6-1.8-31.5-25.4-54-52.9-50.3zM507.9 883.3c-11.7 4-21.2 12.5-27.1 24.1-4.5 8.9-5.8 14.1-6.5 25.1-.5 8.3-.2 11.5 1.6 18.4 6.6 26.1 27.6 42.2 51.1 38.9 9-1.2 16.5-5.2 24.1-12.7 13.7-13.7 19.4-33.4 15.5-53.2-6.3-31.1-32.8-49.4-58.7-40.6z"/></svg>